<?xml version="1.0" encoding="utf-8"?>
<svg version="1.1" id="Layer_1" xmlns="http://www.w3.org/2000/svg" xmlns:xlink="http://www.w3.org/1999/xlink" x="0px" y="0px"
	 viewBox="0 0 375 387" style="enable-background:new 0 0 375 387;" xml:space="preserve">
<g fill="#cec4bc" fill-opacity="0.1">
	<path d="M59.8,15.2c-14.5,2.6-29.3,5.1-43.9,7.4c-4,0.6-8.3,0.9-13,1.1c-0.9,0-2,0.1-2.9,0.2v0.9c1-0.1,2-0.1,3-0.2
		c4.7-0.2,9.1-0.5,13.2-1.1c14.6-2.3,29.4-4.7,44-7.4c4-0.7,9.9-2.7,16.8-5.1c15.9-5.4,37.6-12.9,49.9-8.7c3.9,1.3,6.6,3.7,8.2,7.2
		c2.1,4.6-0.1,10.4-2.3,16.1c-1.4,3.7-2.7,7.1-3,10.3c-0.8,14.4,0.9,26.6,5.2,37.3c8.9,22.2,36.2,44.7,69.4,42.5
		c7.2-0.5,14.5-2,21.5-3.6c12.5-2.7,24.2-5.3,35.8-2.2c12.5,3.4,20.3,12.6,27.9,22.4L375,243.9v-1.7l-84.6-110.6
		c-7.7-10.1-15.6-19.3-28.5-22.8c-11.8-3.3-24.3-0.5-36.5,2.1c-6.9,1.5-14.2,3.1-21.2,3.6c-32.7,2.1-59.5-20-68.2-41.9
		c-4.3-10.6-5.9-22.7-5.1-37.1c0.1-3,1.6-6.5,2.9-10.1c2.2-5.7,4.6-11.6,2.3-16.5c-1.7-3.7-4.7-6.3-8.9-7.6
		C114.5-3,92.4,4.5,76.4,10C69.5,12.5,63.7,14.5,59.8,15.2z"/>
	<path d="M61.3,46.7c-10.9,2.2-22.4,4.4-35,6.6c-3.3,0.6-6.8,0.9-10.4,1.3c-5.3,0.5-10.9,1-15.8,2.3v1C5,56.4,10.5,56,16,55.5
		c3.8-0.3,7.3-0.7,10.5-1.3c12.6-2.2,24.1-4.4,35-6.6c3.5-0.7,8.5-2.4,14.2-4.5c16.1-5.7,38.2-13.4,45.6-3.8c2.3,3,1.8,6.9,1.2,10.9
		c-0.1,1-0.3,1.8-0.4,2.8c-0.1,1.7-0.3,3.1,0,4.4c0.9,8.1,2.2,19.3,6.1,29.4c1.6,4.1,3.6,7.9,6.1,11.6
		c10.4,15.2,26.2,25.2,42.2,26.5c4.8,0.4,9.8,0.1,14.5-0.2c8.5-0.5,16.4-1.1,24.3,2.3c9,3.8,14.8,11.9,19.5,19.2
		c8.9,13.5,21.1,31,36.3,46.3c4.2,4.2,8.7,7.8,13.2,11.4c3.4,2.8,7,5.7,10.4,8.8c3.1,2.8,5.9,6.1,8.5,9.3c2.2,2.7,4.6,5.4,7,7.9
		c2.3,2.3,4.9,4.4,7.4,6.3c5.2,4.1,10,7.8,12.8,14c2.5,5.5,5.5,10.9,9.2,17.1c2.7,4.4,5.7,8.7,8.9,13.4l1.8,2.6
		c6.1,8.9,9.4,16.3,10,23.2c0.8,7-1,14.1-3,20.9l-0.5,1.5c-1.8,6.2-3.6,12-3,18c0.4,3.8,1.8,7.4,3.3,10.9c1.7,4.4,3.4,8.8,3.4,13.6
		c-0.1,6.3-2.7,10.6-6.6,14.6h1.4c3.8-4,6.2-8.3,6.4-14.6c0.1-4.9-1.7-9.5-3.4-13.8c-1.3-3.5-2.7-7.1-3.3-10.7
		c-0.7-5.8,1-11.6,2.9-17.7l0.5-1.5c2-6.8,3.8-14,3-21.2c-0.8-7.1-4-14.5-10.2-23.5l-1.8-2.6c-3.1-4.6-6.1-9-8.9-13.3
		c-3.8-6.1-6.6-11.5-9.1-17c-2.9-6.4-7.8-10.3-13-14.3c-2.5-1.9-5.1-4-7.3-6.2c-2.5-2.4-4.8-5.2-7-7.8c-2.6-3.2-5.3-6.5-8.6-9.4
		c-3.4-3.1-6.9-6-10.4-8.8c-4.4-3.6-8.9-7.2-13-11.3c-15.2-15.3-27.3-32.8-36.2-46.2c-4.8-7.4-10.8-15.6-20.1-19.5
		c-8.2-3.5-16.7-2.9-25-2.4c-4.7,0.3-9.5,0.6-14.3,0.2c-15.6-1.4-31-11.1-41.3-26.1c-2.5-3.6-4.4-7.4-6-11.4
		c-3.8-10.1-5.1-21.1-6-29.2c-0.1-1.3-0.1-2.6,0-4.3c0.1-1,0.3-1.8,0.4-2.8c0.7-4.2,1.2-8.1-1.3-11.4c-7.9-10.4-30.6-2.4-47,3.4
		C69.5,44.3,64.7,46,61.3,46.7z"/>
	<path d="M62.8,78.3c-7.6,1.7-15.6,3.6-26.2,5.8c-2.5,0.6-5.1,1-7.8,1.4c-6.2,1-12.8,1.9-18,4.8c-4.4,2.4-7,5.5-9.1,8.2
		c-0.7,1-1.2,1.9-1.6,2.8v2.6c0.3-0.6,0.5-1.1,0.8-1.6c0.5-1.2,1-2.2,1.8-3.4c2-2.6,4.6-5.7,8.7-7.9c5.1-2.7,11.3-3.7,17.6-4.6
		c2.6-0.4,5.5-0.9,7.9-1.4c10.5-2.2,18.6-4.1,26.2-5.8c3.1-0.7,7.2-2.2,11.8-4c11.5-4.3,25.7-9.6,32.9-5.8c3.1,1.6,4.3,3.9,5.6,7.1
		v0.1c0.4,0.9,0.8,1.8,1.2,2.7c1.6,3.6,2.7,7.7,4,12.2c0.9,3.1,1.8,6.3,2.9,9.3c1.2,3.4,2.5,6.3,3.9,8.9
		c6.4,11.6,14.6,20.4,22.9,24.8c2.5,1.4,5.1,2.3,7.6,3.2c4.4,1.7,8.7,3.3,12.9,6.9c4.7,4,8.2,10,11.3,15.9
		c9.8,18.7,21.6,33.3,35,43.6c4.7,3.6,10,6,15.2,8.4c4,1.8,8.2,3.8,12.1,6.2c3.5,2.2,6.2,5.2,9,8.2c2.2,2.5,4.6,5,7.4,7.1
		c2.7,2,5.9,3.3,9,4.6c5.9,2.4,11.5,4.7,12.8,11.5c1.2,6.4,2.9,11.8,5.3,17.1c2.2,4.9,5.5,10,9.8,15.4c6.1,7.6,10.7,14.1,13.2,21
		c2.3,6.5,2.7,13,1.3,19.7c-0.7,3.2-1.8,6.4-2.9,9.5c-1,2.8-2,5.8-2.6,8.6c-2,8.3-1.3,16.1-0.4,23.8c0.3,2,0.5,4,0.8,5.8
		c0.9,5.7,1.6,10.4,0,15.3h1.2c1.6-5,0.9-9.8,0-15.4c-0.3-1.8-0.5-3.7-0.8-5.8c-0.9-7.7-1.6-15.3,0.4-23.6c0.7-2.8,1.6-5.6,2.6-8.6
		c1-3.1,2.2-6.3,2.9-9.6c1.6-7,1-13.5-1.3-20.1c-2.6-7-7.2-13.5-13.3-21.2c-4.3-5.3-7.4-10.3-9.6-15.2c-2.3-5.2-4-10.5-5.2-16.9
		c-1.3-7.3-7.2-9.7-13.3-12.2c-3-1.3-6.1-2.5-8.7-4.4c-2.7-1.9-4.9-4.4-7.3-7c-2.7-3-5.6-6-9.2-8.3c-3.9-2.5-8.1-4.5-12.2-6.3
		c-5.1-2.3-10.4-4.8-15-8.3c-13.4-10.3-25-24.8-34.8-43.3c-3.1-6-6.6-12-11.6-16.2c-4.4-3.7-9-5.4-13.3-7.1c-2.5-1-4.9-1.8-7.4-3.2
		c-8.1-4.2-16.3-13.1-22.5-24.4c-1.4-2.5-2.6-5.4-3.8-8.7c-1-3-2-6.2-2.9-9.3c-1.3-4.4-2.5-8.6-4-12.3c-0.4-1-0.8-1.8-1.2-2.7V76
		c-1.4-3.3-2.6-5.8-6-7.5c-7.8-4.1-22.4,1.4-34,5.7C69.8,76,65.8,77.5,62.8,78.3z"/>
	<path d="M64.2,109.8C54,112.7,44,115.6,34,118.5c-7.2,2.1-14.3,4.2-21.5,6.3c-4.6,1.3-8.7,2.6-12.4,4.3v1c3.8-1.7,8.1-3.1,12.8-4.5
		c7.2-2,14.3-4.2,21.5-6.3c10-2.9,20.2-5.8,30.2-8.7c3.3-1,7.2-2.7,11.2-4.5c9.9-4.4,21-9.5,29.2-6.3c6.9,2.7,9.5,12.8,11.1,18.7
		c0.3,0.8,0.4,1.5,0.5,2.1c2.3,8.2,3.1,16.8,4,25.2c0.9,9.5,2,19.3,5.1,28.4c5.9,17.1,18.1,32,33.7,40.8c5.2,3,11.3,4.2,17.3,5.4
		c4.7,1,9.5,1.9,13.8,3.7c3.9,1.6,6.8,4.4,9.5,7.2c2.3,2.3,4.7,4.6,7.8,6.3c3.1,1.6,7,2.2,10.7,2.8c6.9,1,12.8,1.8,12.5,9.3
		c-0.5,11.7,0,20.8,10.2,31.8c1.2,1.2,2.2,2.4,3.4,3.6c9.9,10.5,20.2,21.4,18.5,33.8c-0.8,5.9-4.4,11.5-7.8,17
		c-4.6,7.3-9.4,14.8-7.3,22.8c1.2,4.4,4.3,8.5,7.3,12.4c3.9,5,7.6,9.9,7.2,15h1.2c0.4-5.4-3.5-10.5-7.3-15.5
		c-3-3.9-6.1-7.9-7.2-12.2c-2-7.7,2.5-14.8,7.2-22.2c3.5-5.5,7.2-11.2,7.9-17.3c1.7-12.8-8.7-23.8-18.8-34.4
		c-1.2-1.2-2.2-2.4-3.4-3.6c-10-10.8-10.4-19.8-10-31.3c0.4-8.1-6.6-9.1-13.4-10.2c-3.6-0.5-7.3-1.1-10.3-2.6
		c-2.9-1.5-5.2-3.8-7.6-6.1c-2.7-2.8-5.7-5.6-9.9-7.4c-4.4-1.8-9.2-2.8-14.1-3.8c-5.9-1.2-11.8-2.4-16.9-5.2
		c-15.5-8.7-27.6-23.4-33.3-40.3c-3.1-9.1-4-18.9-4.9-28.3c-0.8-8.4-1.7-17-4-25.2c-0.1-0.7-0.4-1.4-0.5-2.1
		c-1.7-6.5-4.3-16.3-11.7-19.3c-8.7-3.5-20.2,1.7-30.2,6.3C71.2,107.1,67.3,108.8,64.2,109.8z"/>
	<path d="M32,167.4c-4,1.3-8.5,2.6-13.3,4.4c-5.2,1.7-11.1,4-15.2,7.4c-0.8,0.7-1.6,1.3-2.2,1.9c-0.5,0.5-0.9,1-1.3,1.5v1.7
		c0.7-1,1.4-1.9,2.2-2.7c0.7-0.7,1.3-1.3,2.1-1.8c4.2-3.3,9.9-5.4,15-7.2c4.8-1.7,9.2-3.1,13.3-4.4l0.8-0.3c9.8-2.9,19.9-5.9,29.2-6
		c6.8,0,11.2,0.5,17.6,1.1c4.2,0.4,8.9,1.3,12.8,4.1c2.5,1.8,4.6,4.7,5.9,8.5c0.9,2.6,1.7,5.2,2.5,7.8c0.7,2.3,1.3,4.4,2,6.3
		c1.3,3.7,2.6,7.3,4.2,10.7c1.7,3.8,4.3,6.2,6.2,8c0.4,0.4,0.8,0.7,1,1.1c1.3,1.3,2,2.2,2.6,3.3c0.3,0.4,0.5,0.9,0.9,1.3
		c0.5,0.8,1.4,1.4,2.3,2c1,0.8,2.3,1.7,3.8,3.1c2.5,2.5,4.9,5.5,7.7,8.6c6.1,7.3,13.2,15.4,22,21.5c2.7,1.8,5.7,3.1,8.2,4.1
		c1.2,0.5,2.3,0.9,3.6,1.4c3.4,1.3,6.6,2.4,9.5,4.2c2.6,1.5,4.4,4,6.1,6.3c1.4,1.8,2.9,3.8,4.7,5.2c2,1.5,4.3,2.2,6.6,3
		c4.3,1.4,7.9,2.5,7.4,8.2c-0.9,9.3-1,17.1,5.5,26c1.3,1.7,2.7,3.6,4,5.4c3,3.9,6.1,7.9,8.6,12c3,4.9,4.6,9,4.7,13
		c0.3,4.4-1.2,8.7-2.6,12.8c-2,5.6-3.9,11.4-1.4,17.6c0.5,1.5,1.4,3,2.6,4.7c1,1.5,2.1,2.9,3.3,4.3c2.2,2.9,4.4,5.6,5.6,8.5h1.2
		c-1.2-3.1-3.5-6-5.7-8.9c-1-1.4-2.2-2.8-3.1-4.3c-1.2-1.7-2-3.2-2.6-4.5c-2.3-6-0.5-11.4,1.4-17.1c1.4-4.2,2.9-8.5,2.6-13.1
		c-0.3-4.1-1.7-8.2-4.8-13.3c-2.5-4.2-5.6-8.2-8.7-12.1c-1.3-1.7-2.7-3.6-4-5.3c-6.4-8.7-6.2-16.3-5.3-25.5c0.7-6.2-3.8-7.6-8.1-9
		c-2.2-0.7-4.4-1.5-6.2-2.8c-1.7-1.4-3.1-3.2-4.6-5c-1.8-2.4-3.6-4.8-6.4-6.6c-3-1.8-6.4-3.1-9.8-4.3c-1.2-0.4-2.3-0.9-3.5-1.4
		c-2.5-1-5.3-2.1-7.9-4c-8.7-5.9-15.8-14.1-21.9-21.3c-2.6-3.1-5.2-6.1-7.7-8.6c-1.4-1.5-2.7-2.4-3.9-3.2c-0.9-0.7-1.7-1.3-2.2-1.8
		c-0.3-0.4-0.5-0.8-0.9-1.3c-0.7-1.1-1.4-2-2.7-3.4c-0.3-0.3-0.7-0.7-1.2-1.1c-1.8-1.7-4.4-4.1-6-7.7c-1.6-3.5-2.9-7.1-4.2-10.7
		c-0.7-1.8-1.3-4-2-6.3c-0.8-2.6-1.6-5.3-2.5-7.8c-1.4-3.9-3.5-7-6.1-8.9c-4-3-9-3.9-13.4-4.4c-6.4-0.7-10.9-1.1-17.7-1.1
		c-9.5,0-19.7,3.1-29.7,6L32,167.4z"/>
	<path d="M25,218.9c-3.3,1.5-7.9,3.7-11.8,6.8c-0.7,0.5-1.3,1.1-1.8,1.5c-1,1-2,2-2.9,3.1c-1,1.3-2.2,2.5-3.5,3.7
		c-1.6,1.4-3.3,2.4-4.9,3.4v1.1c2.1-1.1,4-2.3,5.9-3.9c1.3-1.2,2.5-2.5,3.6-3.8c0.9-1,1.8-2,2.9-3c0.5-0.5,1.2-1.1,1.7-1.5
		c3.8-3,8.3-5.2,11.6-6.6c3.8-1.6,7.2-3,10.4-4c7.2-2.2,17.3-4.4,24.3-2.1c4.7,1.5,6.2,4.3,7.8,7.2c0.9,1.5,1.7,3.2,3.1,4.6
		c1,1.1,2.1,2,3.3,3.2c2,1.8,4.2,3.9,6,6.2c2.1,2.8,3.6,6.1,4.4,9.6c1.2,5.1,2.3,10.4,4.2,14.8c1.7,4.1,3.8,7.6,6.1,10.8
		c3.4,4.5,10.2,5.1,13.5,3.8c2.6-1.1,3.8-2.7,4.8-4.4c0.3-0.4,0.5-0.8,0.8-1.2c2-2.6,4.6-3.8,8.1-3.8c7.7,3.5,18.1,12.6,25.4,19.2
		c1.4,1.3,2.7,2.3,4,3.4l1,0.9c2.3,1.9,4.7,3.7,6.4,5.9c1.3,1.6,2.1,3.8,2.7,5.8c0.5,1.5,0.9,2.7,1.6,4c0.7,1.3,1.6,2.2,2.5,3.1
		c1.7,1.8,3.3,3.4,2.5,7.4c-1.4,7-2.3,13.3,0.8,20.1c1.8,4,4.2,8.3,7.7,14c2.1,3.3,4,6.4,5.2,9.4c1.2,2.9,1.8,5.7,2.3,8.4
		c0.8,4,1.7,8,4.6,12.6c0.8,1.3,1.7,2.4,2.5,3.4c0.4,0.5,0.8,1,1.2,1.5c0.8,1,1.4,1.8,2.2,2.8h1.3c-0.8-1.1-1.7-2.1-2.5-3.2
		c-0.4-0.5-0.8-1-1.2-1.5c-0.8-1-1.7-2.1-2.5-3.3c-2.9-4.4-3.6-8.2-4.4-12.3c-0.5-2.7-1.2-5.5-2.3-8.5c-1.3-3.1-3.3-6.3-5.3-9.6
		c-3.5-5.7-5.9-10-7.7-13.9c-3-6.7-2.1-12.7-0.7-19.7c0.9-4.4-0.9-6.1-2.7-8c-0.8-0.9-1.7-1.7-2.3-2.9c-0.7-1.2-1-2.4-1.6-3.8
		c-0.8-2.1-1.4-4.3-2.9-6c-1.8-2.3-4.2-4.2-6.6-6.1l-1-0.9c-1.3-1.1-2.6-2-4-3.3c-7.3-6.7-18-16-25.8-19.4l-0.1-0.1h-0.1
		c-4-0.1-7,1.3-9.2,4.2c-0.3,0.4-0.5,0.8-0.8,1.2c-1,1.5-2.1,3.1-4.4,4c-3,1.2-9,0.7-12.1-3.4c-2.3-3.1-4.3-6.6-6-10.6
		c-1.8-4.4-3-9.7-4.2-14.7c-0.8-3.6-2.3-7-4.6-9.9c-1.8-2.4-4-4.4-6-6.3c-1.2-1.1-2.2-2-3.1-3.1c-1.3-1.4-2.2-3-3-4.4
		c-1.7-3-3.4-6-8.5-7.6c-7.4-2.4-17.7-0.2-25.1,2.1C32.3,215.9,28.8,217.2,25,218.9z"/>
	<path d="M22.9,272.1c-8.9,7.1-19,15-22.7,25.3c-0.1,0.2-0.1,0.5-0.3,0.7v4.4c0.4-1.6,0.8-3.3,1.3-4.8c3.6-10.1,13.7-18,22.4-25
		c4.6-3.6,9.6-7.6,15.9-9.7c5.6-1.8,13.8-1.9,18.6,1.9c4.6,3.7,4.4,8.9,4.3,14.5c-0.1,2.7-0.1,5.5,0.4,8.1c0.8,4.2,2.5,7.9,4,11.6
		c2,4.5,3.9,8.8,4.3,13.6c1,11.5,4.8,19.6,12,26.3c1.8,1.6,4.6,2.6,7.7,2.6c4.3,0,8.9-1.7,11.6-4.4c3.8-3.6,5.1-8.1,6.5-12.6
		c0.3-1,0.5-1.8,0.9-2.8c2.3-6.9,5.9-11,11.1-12.8c4.7-1.5,9-0.5,11.7,0.7c5.5,2.3,9.8,6.9,10.8,11.6c1.7,7.4-1.7,14.8-4.9,22
		c-0.4,0.8-0.8,1.6-1,2.4c-3.4,7.4-6.5,17-1.3,24.9c3.1,4.8,8.9,8.1,14.3,11.4c2.1,1.2,4.2,2.4,6.1,3.8h1.7c-2.2-1.5-4.7-3-7.2-4.5
		c-5.6-3.3-10.9-6.4-14.1-11c-4.9-7.6-2-16.9,1.3-24.2c0.4-0.8,0.8-1.6,1-2.4c3.3-7.3,6.8-14.8,5.1-22.3c-1.2-5-5.6-9.8-11.3-12.2
		c-4.3-1.7-8.7-2-12.8-0.8c-5.6,1.8-9.4,6.2-11.7,13.3c-0.3,1-0.7,1.8-0.9,2.8c-1.3,4.4-2.7,8.8-6.2,12.2c-2.5,2.4-6.8,4-10.7,4
		c-2,0-4.8-0.4-6.8-2.2c-7-6.6-10.7-14.6-11.8-25.8c-0.5-5-2.5-9.5-4.4-13.9c-1.6-3.7-3.3-7.4-4-11.5c-0.5-2.5-0.4-5.3-0.4-7.9
		c0.1-5.5,0.3-11.1-4.6-15.1c-5.2-4.2-13.8-4.1-19.9-2.1C32.7,264.4,27.5,268.4,22.9,272.1z"/>
</g>
</svg>
